<?xml version="1.0" encoding="UTF-8" standalone="no"?>
<!-- Created with Inkscape (http://www.inkscape.org/) -->

<svg
   xmlns:dc="http://purl.org/dc/elements/1.1/"
   xmlns:cc="http://creativecommons.org/ns#"
   xmlns:rdf="http://www.w3.org/1999/02/22-rdf-syntax-ns#"
   xmlns:svg="http://www.w3.org/2000/svg"
   xmlns="http://www.w3.org/2000/svg"
   xmlns:sodipodi="http://sodipodi.sourceforge.net/DTD/sodipodi-0.dtd"
   xmlns:inkscape="http://www.inkscape.org/namespaces/inkscape"
   width="35.406826mm"
   height="55.53783mm"
   viewBox="0 0 35.406826 55.53783"
   version="1.1"
   id="svg8"
   inkscape:version="0.92.2 (5c3e80d, 2017-08-06)"
   sodipodi:docname="Full_logo.svg">
  <defs
     id="defs2">
    <clipPath
       id="clipPath4524"
       clipPathUnits="userSpaceOnUse">
      <path
         inkscape:connector-curvature="0"
         id="path4522"
         d="M 0,251.724 H 166.208 V 0 H 0 Z" />
    </clipPath>
  </defs>
  <sodipodi:namedview
     id="base"
     pagecolor="#ffffff"
     bordercolor="#666666"
     borderopacity="1.0"
     inkscape:pageopacity="0.0"
     inkscape:pageshadow="2"
     inkscape:zoom="4.1733616"
     inkscape:cx="81.79337"
     inkscape:cy="91.207333"
     inkscape:document-units="mm"
     inkscape:current-layer="layer1"
     showgrid="false"
     inkscape:window-width="1920"
     inkscape:window-height="1137"
     inkscape:window-x="1912"
     inkscape:window-y="-8"
     inkscape:window-maximized="1" />
  <metadata
     id="metadata5">
    <rdf:RDF>
      <cc:Work
         rdf:about="">
        <dc:format>image/svg+xml</dc:format>
        <dc:type
           rdf:resource="http://purl.org/dc/dcmitype/StillImage" />
        <dc:title />
      </cc:Work>
    </rdf:RDF>
  </metadata>
  <g
     inkscape:label="Calque 1"
     inkscape:groupmode="layer"
     id="layer1"
     transform="translate(-71.876944,-107.45728)">
    <g
       transform="matrix(0.35277777,0,0,-0.35277777,58.664852,180.61428)"
       inkscape:label="ICESL-coul"
       id="g4512">
      <g
         transform="translate(42.0249,123.084)"
         id="g4514">
        <path
           inkscape:connector-curvature="0"
           id="path4516"
           style="fill:#4a4949;fill-opacity:1;fill-rule:nonzero;stroke:none"
           d="m 0,0 -0.32,5.578 90.505,5.205 0.32,-5.577 z" />
      </g>
      <g
         id="g4518">
        <g
           clip-path="url(#clipPath4524)"
           id="g4520">
          <g
             transform="translate(89.2788,120.2559)"
             id="g4526">
            <path
               inkscape:connector-curvature="0"
               id="path4528"
               style="fill:#4a4949;fill-opacity:1;fill-rule:nonzero;stroke:none"
               d="M 39.796,11.876 -0.393,64.601 0,0 Z M -5.471,63.652 -44.537,6.421 -5.077,-0.226 Z M 46.397,12.269 c 0.574,-0.75 0.746,-1.804 0.451,-2.784 -0.289,-0.976 -1,-1.731 -1.873,-1.997 L -1.77,-6.455 C -1.936,-6.508 -2.105,-6.539 -2.276,-6.548 -2.313,-6.551 -2.35,-6.556 -2.389,-6.555 -2.76,-6.594 -3.137,-6.54 -3.47,-6.406 l -46.19,7.777 c -0.873,0.145 -1.596,0.811 -1.895,1.748 -0.309,0.938 -0.147,2.014 0.413,2.84 l 46.408,67.987 c 0.478,0.699 1.199,1.131 1.957,1.182 0.755,0.049 1.48,-0.292 1.966,-0.93 z"
               sodipodi:nodetypes="cccccccccccccccccccccc" />
          </g>
          <g
             transform="translate(95.855,194.2729)"
             id="g4530">
            <path
               inkscape:connector-curvature="0"
               id="path4532"
               style="fill:#56bec2;fill-opacity:1;fill-rule:nonzero;stroke:none"
               d="m -19.555,-61.644 c 17.9892985,12.893084 36.061392,25.672931 53.772,38.949 L 0,0 Z m -4.571,2.371 19.335,60.961 -39.697,5.079 z m 64.891,39.071 c 0.759,-0.502 1.213,-1.428 1.197,-2.45 -0.01,-1.013 -0.487,-1.977 -1.248,-2.523 L -22.8,-70.705 c -0.651,-0.468 -1.444,-0.586 -2.158,-0.322 -0.709,0.272 -1.263,0.889 -1.515,1.703 L -50.662,9.127 c -0.285,0.953 -0.118,2.028 0.446,2.835 0.568,0.81 1.452,1.235 2.329,1.121 L -1.415,7.127 C -1.061,7.169 -0.682,7.11 -0.338,6.957 -0.301,6.946 -0.27,6.933 -0.233,6.921 -0.076,6.857 0.078,6.781 0.223,6.688 l 40.542,-26.89"
               sodipodi:nodetypes="cccccccccccccccccccccc" />
          </g>
          <g
             transform="translate(89.2085,117.1348)"
             id="g4534">
            <path
               inkscape:connector-curvature="0"
               id="path4536"
               style="fill:#4a4949;fill-opacity:1;fill-rule:nonzero;stroke:none"
               d="m 0,0 h -5.586 l 0.001,70.55 h 5.586 z" />
          </g>
          <g
             transform="translate(105.3745,163.1919)"
             id="g4538">
            <path
               inkscape:connector-curvature="0"
               id="path4540"
               style="fill:#4a4949;fill-opacity:1;fill-rule:nonzero;stroke:none"
               d="m 0,0 -20.444,26.734 4.437,3.394 L 4.437,3.394 Z" />
          </g>
          <g
             transform="translate(133.1196,168.1738)"
             id="g4542">
            <path
               inkscape:connector-curvature="0"
               id="path4544"
               style="fill:#56bec2;fill-opacity:1;fill-rule:nonzero;stroke:none"
               d="m 0,0 -84.75,31.969 1.972,5.227 L 1.973,5.228 Z" />
          </g>
          <path
             inkscape:connector-curvature="0"
             id="path4546"
             style="fill:#4a4949;fill-opacity:1;fill-rule:nonzero;stroke:none"
             d="m 37.627,100.787 h 4.031 V 69.276 h -4.031 z" />
          <g
             transform="translate(53.3789,79.3779)"
             id="g4548">
            <path
               inkscape:connector-curvature="0"
               id="path4550"
               style="fill:#4a4949;fill-opacity:1;fill-rule:nonzero;stroke:none"
               d="m 0,0 c 0,-4.68 1.622,-7.09 5.421,-7.09 1.808,0 3.801,0.464 5.978,1.437 l 1.159,-3.198 c -2.455,-1.112 -5.005,-1.714 -7.368,-1.714 -5.931,0 -9.083,3.986 -9.083,10.565 v 2.734 c 0,6.535 3.152,10.566 9.083,10.566 2.224,0 4.634,-0.603 7.044,-1.668 L 11.075,8.388 C 9.037,9.269 7.137,9.778 5.421,9.778 1.622,9.778 0,7.368 0,2.734 Z" />
          </g>
          <g
             transform="translate(73.9497,82.7148)"
             id="g4552">
            <path
               inkscape:connector-curvature="0"
               id="path4554"
               style="fill:#4a4949;fill-opacity:1;fill-rule:nonzero;stroke:none"
               d="m 0,0 h 10.38 c 0.093,0.556 0.14,1.111 0.14,1.576 0,3.475 -2.272,5.051 -4.959,5.051 C 1.993,6.627 0.186,4.217 0,0 m 6.07,-13.902 c -6.626,0 -9.823,3.986 -9.823,10.565 v 2.78 c 0,6.35 3.382,10.52 9.314,10.52 4.726,0 8.665,-2.78 8.665,-8.758 0,-1.344 -0.184,-2.781 -0.555,-4.449 L 0,-3.244 v -0.093 c 0,-4.68 1.808,-7.136 6.162,-7.136 1.947,0 4.449,0.463 6.767,1.529 l 1.159,-3.151 c -2.781,-1.343 -5.7,-1.807 -8.018,-1.807" />
          </g>
          <g
             transform="translate(108.0972,77.4326)"
             id="g4556">
            <path
               inkscape:connector-curvature="0"
               id="path4558"
               style="fill:#56bec2;fill-opacity:1;fill-rule:nonzero;stroke:none"
               d="m 0,0 c 0,2.733 -1.344,4.587 -4.634,5.56 l -3.754,1.112 c -4.724,1.391 -6.856,4.309 -6.856,8.526 0,4.774 2.64,8.619 9.547,8.619 2.78,0 5.744,-0.648 8.802,-2.039 L 1.808,18.304 c -2.964,1.297 -5.237,1.853 -7.414,1.853 -3.522,0 -5.561,-1.344 -5.561,-4.68 0,-2.41 1.112,-4.033 4.448,-5.051 l 3.755,-1.113 c 4.679,-1.39 7.043,-4.355 7.043,-8.989 0,-5.329 -3.058,-8.944 -10.147,-8.944 -2.921,0 -6.211,0.649 -9.641,2.224 l 1.252,3.43 c 3.29,-1.483 5.7,-2.039 8.389,-2.039 C -2.178,-5.005 0,-3.291 0,0" />
          </g>
          <g
             transform="translate(136.2681,69.2764)"
             id="g4560">
            <path
               inkscape:connector-curvature="0"
               id="path4562"
               style="fill:#56bec2;fill-opacity:1;fill-rule:nonzero;stroke:none"
               d="m 0,0 h -17.238 v 31.511 h 4.031 V 3.753 H 0 Z" />
          </g>
          <g
             transform="translate(38.1006,55.1787)"
             id="g4564">
            <path
               inkscape:connector-curvature="0"
               id="path4566"
               style="fill:#71706e;fill-opacity:1;fill-rule:nonzero;stroke:none"
               d="m 0,0 c 0.276,0.415 0.829,1.216 2.017,1.216 1.422,0 1.85,-1.092 2.003,-1.492 0.676,1.132 1.366,1.492 2.168,1.492 0.745,0 1.436,-0.373 1.753,-0.953 0.387,-0.705 0.401,-1.16 0.401,-2.045 V -5.11 H 7.679 v 3.273 c 0,0.76 -0.069,1.215 -0.29,1.63 C 7.141,0.235 6.629,0.58 6.077,0.58 5.635,0.58 4.709,0.304 4.171,-0.884 V -5.11 H 3.509 v 3.177 c 0,1.215 -0.153,1.546 -0.36,1.85 C 2.873,0.304 2.417,0.58 1.864,0.58 0.815,0.58 0.276,-0.317 0,-0.76 V -5.11 H -0.649 V 1.091 H 0 Z" />
          </g>
          <g
             transform="translate(48.4854,53.1758)"
             id="g4568">
            <path
               inkscape:connector-curvature="0"
               id="path4570"
               style="fill:#71706e;fill-opacity:1;fill-rule:nonzero;stroke:none"
               d="m 0,0 c 0,-1.574 1.105,-2.623 2.445,-2.623 1.353,0 2.444,1.062 2.444,2.623 0,1.699 -1.27,2.598 -2.444,2.598 C 1.312,2.598 0,1.74 0,0 m 5.594,-0.014 c 0,-2.015 -1.533,-3.217 -3.149,-3.217 -1.616,0 -3.163,1.202 -3.163,3.217 0,1.741 1.187,3.233 3.163,3.233 1.933,0 3.149,-1.465 3.149,-3.233" />
          </g>
          <g
             transform="translate(60.0444,55.1641)"
             id="g4572">
            <path
               inkscape:connector-curvature="0"
               id="path4574"
               style="fill:#71706e;fill-opacity:1;fill-rule:nonzero;stroke:none"
               d="m 0,0 c -0.346,0.222 -0.912,0.609 -1.81,0.609 -1.519,0 -2.43,-1.174 -2.43,-2.555 0,-1.63 1.228,-2.652 2.568,-2.652 0.843,0 1.326,0.33 1.672,0.594 z M 0.662,-5.096 H 0 v 0.485 C -0.36,-4.86 -0.898,-5.22 -1.837,-5.22 c -1.589,0 -3.135,1.23 -3.135,3.232 0,1.92 1.394,3.218 3.135,3.218 0.842,0 1.409,-0.277 1.837,-0.498 v 3.592 h 0.662 z" />
          </g>
          <g
             transform="translate(66.8521,53.9355)"
             id="g4576">
            <path
               inkscape:connector-curvature="0"
               id="path4578"
               style="fill:#71706e;fill-opacity:1;fill-rule:nonzero;stroke:none"
               d="M 0,0 C -0.055,0.277 -0.124,0.607 -0.373,0.994 -0.69,1.52 -1.271,1.864 -1.961,1.864 -2.79,1.864 -3.77,1.285 -4.005,0 Z m -4.074,-0.525 c -0.07,-1.975 1.243,-2.844 2.43,-2.844 1.188,0 1.948,0.635 2.321,0.953 v -0.746 c -0.58,-0.457 -1.354,-0.829 -2.389,-0.829 -2.031,0 -3.094,1.643 -3.094,3.302 0,1.642 1.063,3.148 2.845,3.148 1.381,0 2.169,-0.87 2.486,-1.616 0.221,-0.497 0.248,-0.926 0.262,-1.368 z" />
          </g>
          <path
             inkscape:connector-curvature="0"
             id="path4580"
             style="fill:#71706e;fill-opacity:1;fill-rule:nonzero;stroke:none"
             d="m 69.765,50.068 h -0.663 v 9.42 h 0.663 z" />
          <g
             transform="translate(76.0356,53.9355)"
             id="g4582">
            <path
               inkscape:connector-curvature="0"
               id="path4584"
               style="fill:#71706e;fill-opacity:1;fill-rule:nonzero;stroke:none"
               d="M 0,0 C -0.055,0.277 -0.125,0.607 -0.374,0.994 -0.69,1.52 -1.271,1.864 -1.962,1.864 -2.791,1.864 -3.771,1.285 -4.005,0 Z m -4.075,-0.525 c -0.069,-1.975 1.243,-2.844 2.431,-2.844 1.188,0 1.947,0.635 2.32,0.953 v -0.746 c -0.579,-0.457 -1.353,-0.829 -2.389,-0.829 -2.031,0 -3.093,1.643 -3.093,3.302 0,1.642 1.062,3.148 2.844,3.148 1.381,0 2.17,-0.87 2.487,-1.616 0.22,-0.497 0.247,-0.926 0.26,-1.368 z" />
          </g>
          <g
             transform="translate(82.0835,55.041)"
             id="g4586">
            <path
               inkscape:connector-curvature="0"
               id="path4588"
               style="fill:#71706e;fill-opacity:1;fill-rule:nonzero;stroke:none"
               d="m 0,0 c -0.317,0.275 -0.773,0.676 -1.229,0.676 -0.718,0 -1.465,-0.869 -2.002,-1.754 v -3.895 h -0.664 v 6.202 h 0.664 V -0.4 c 0.261,0.4 1.172,1.754 2.209,1.754 0.58,0 1.091,-0.457 1.408,-0.733 z" />
          </g>
          <g
             transform="translate(89.9272,53.2461)"
             id="g4590">
            <path
               inkscape:connector-curvature="0"
               id="path4592"
               style="fill:#71706e;fill-opacity:1;fill-rule:nonzero;stroke:none"
               d="m 0,0 c -0.388,-0.015 -1.12,-0.028 -1.699,-0.264 -0.622,-0.248 -1.257,-0.731 -1.257,-1.476 0,-0.733 0.746,-1.024 1.229,-1.024 0.787,0 1.367,0.485 1.727,0.816 z m 1.698,-2.652 c -0.581,-0.414 -0.968,-0.65 -1.243,-0.65 -0.386,0 -0.414,0.304 -0.455,0.775 -0.318,-0.25 -0.995,-0.775 -1.947,-0.775 -0.913,0 -1.686,0.677 -1.686,1.562 0,2.029 2.776,2.236 3.633,2.278 v 0.787 c 0,0.718 -0.332,1.229 -1.368,1.229 -0.745,0 -1.243,-0.262 -1.905,-0.745 v 0.675 c 0.371,0.222 1.063,0.664 1.988,0.664 0.511,0 1.201,-0.152 1.56,-0.552 0.359,-0.401 0.387,-0.733 0.387,-1.45 v -3.177 c 0,-0.18 0,-0.51 0.014,-0.553 0.013,-0.027 0.041,-0.068 0.124,-0.068 0.194,0 0.719,0.4 0.898,0.552 z" />
          </g>
          <g
             transform="translate(93.187,55.1924)"
             id="g4594">
            <path
               inkscape:connector-curvature="0"
               id="path4596"
               style="fill:#71706e;fill-opacity:1;fill-rule:nonzero;stroke:none"
               d="m 0,0 c 0.288,0.401 0.827,1.202 2.028,1.202 0.704,0 1.465,-0.305 1.852,-0.87 0.427,-0.636 0.496,-1.298 0.496,-2.101 V -5.124 H 3.713 v 3.302 c 0,0.952 -0.15,1.352 -0.386,1.684 C 3.037,0.276 2.525,0.566 1.946,0.566 1.366,0.566 0.827,0.276 0.44,-0.11 0.22,-0.359 0.108,-0.565 0,-0.773 V -5.124 H -0.664 V 1.077 H 0 Z" />
          </g>
          <g
             transform="translate(103.9019,55.1641)"
             id="g4598">
            <path
               inkscape:connector-curvature="0"
               id="path4600"
               style="fill:#71706e;fill-opacity:1;fill-rule:nonzero;stroke:none"
               d="m 0,0 c -0.346,0.222 -0.911,0.609 -1.81,0.609 -1.519,0 -2.43,-1.174 -2.43,-2.555 0,-1.63 1.229,-2.652 2.568,-2.652 0.844,0 1.326,0.33 1.672,0.594 z M 0.663,-5.096 H 0 v 0.485 C -0.359,-4.86 -0.896,-5.22 -1.838,-5.22 c -1.587,0 -3.134,1.23 -3.134,3.232 0,1.92 1.394,3.218 3.134,3.218 0.844,0 1.41,-0.277 1.838,-0.498 v 3.592 h 0.663 z" />
          </g>
          <g
             transform="translate(113.0435,55.1504)"
             id="g4602">
            <path
               inkscape:connector-curvature="0"
               id="path4604"
               style="fill:#71706e;fill-opacity:1;fill-rule:nonzero;stroke:none"
               d="m 0,0 c -0.36,0.249 -0.952,0.637 -1.7,0.637 -0.841,0 -1.339,-0.539 -1.339,-1.051 0,-0.718 0.87,-1.035 1.477,-1.242 0.568,-0.207 1.742,-0.621 1.742,-1.838 0,-0.828 -0.718,-1.712 -2.017,-1.712 -0.276,0 -0.98,0.028 -1.865,0.566 v 0.65 c 0.429,-0.221 1.105,-0.594 1.933,-0.594 0.857,0 1.287,0.511 1.287,1.035 0,0.76 -0.679,1.008 -1.713,1.408 -0.402,0.153 -1.465,0.553 -1.465,1.672 0,0.76 0.649,1.713 2.002,1.713 0.774,0 1.395,-0.373 1.658,-0.525 z" />
          </g>
          <path
             inkscape:connector-curvature="0"
             id="path4606"
             style="fill:#71706e;fill-opacity:1;fill-rule:nonzero;stroke:none"
             d="m 115.294,50.068 h -0.663 v 9.42 h 0.663 z" />
          <path
             inkscape:connector-curvature="0"
             id="path4608"
             style="fill:#71706e;fill-opacity:1;fill-rule:nonzero;stroke:none"
             d="m 117.875,50.068 h -0.649 v 6.201 h 0.649 z m 0,8.287 h -0.649 v 1.133 h 0.649 z" />
          <g
             transform="translate(124.02,55.3584)"
             id="g4610">
            <path
               inkscape:connector-curvature="0"
               id="path4612"
               style="fill:#71706e;fill-opacity:1;fill-rule:nonzero;stroke:none"
               d="m 0,0 c -0.44,0.193 -0.924,0.415 -1.629,0.415 -1.588,0 -2.32,-1.341 -2.32,-2.625 0,-1.284 0.677,-2.582 2.389,-2.582 0.76,0 1.285,0.221 1.671,0.387 v -0.691 c -0.414,-0.138 -0.994,-0.318 -1.768,-0.318 -1.201,0 -2.995,0.746 -2.995,3.136 0,2.25 1.531,3.314 2.995,3.314 0.733,0 1.271,-0.18 1.657,-0.305 z" />
          </g>
          <g
             transform="translate(129.7944,53.9355)"
             id="g4614">
            <path
               inkscape:connector-curvature="0"
               id="path4616"
               style="fill:#71706e;fill-opacity:1;fill-rule:nonzero;stroke:none"
               d="M 0,0 C -0.056,0.277 -0.125,0.607 -0.374,0.994 -0.692,1.52 -1.271,1.864 -1.962,1.864 -2.791,1.864 -3.771,1.285 -4.006,0 Z m -4.075,-0.525 c -0.069,-1.975 1.242,-2.844 2.431,-2.844 1.187,0 1.947,0.635 2.319,0.953 v -0.746 c -0.579,-0.457 -1.353,-0.829 -2.388,-0.829 -2.03,0 -3.094,1.643 -3.094,3.302 0,1.642 1.064,3.148 2.845,3.148 1.381,0 2.169,-0.87 2.485,-1.616 0.221,-0.497 0.248,-0.926 0.262,-1.368 z" />
          </g>
          <g
             transform="translate(135.8413,55.041)"
             id="g4618">
            <path
               inkscape:connector-curvature="0"
               id="path4620"
               style="fill:#71706e;fill-opacity:1;fill-rule:nonzero;stroke:none"
               d="m 0,0 c -0.317,0.275 -0.772,0.676 -1.228,0.676 -0.719,0 -1.464,-0.869 -2.002,-1.754 V -4.973 H -3.895 V 1.229 H -3.23 V -0.4 c 0.262,0.4 1.172,1.754 2.209,1.754 0.58,0 1.09,-0.457 1.409,-0.733 z" />
          </g>
        </g>
      </g>
    </g>
  </g>
</svg>
